<svg xmlns="http://www.w3.org/2000/svg" xmlns:xlink="http://www.w3.org/1999/xlink" version="1.1" x="0px" y="0px" viewBox="0 0 100 125" style="enable-background:new 0 0 100 100;" xml:space="preserve"><g><path d="M50,0C30.016,0,13.816,16.201,13.816,36.185C13.816,64.987,50,100,50,100s36.184-35.013,36.184-63.815   C86.184,16.201,69.984,0,50,0z M65.156,34.392v21.652H34.843V34.392h-6.278l5.195-5.248V15.986h8.661v4.408L50,12.739   l21.436,21.652H65.156z M56.195,41.563h-4.956v-4.956h4.956V41.563z M43.805,36.607h4.956v4.956h-4.956V36.607z M43.805,44.042   h4.956v4.956h-4.956V44.042z M56.195,48.998h-4.956v-4.956h4.956V48.998z"/></g><text x="0" y="115" fill="#000000" font-size="5px" font-weight="bold" font-family="'Helvetica Neue', Helvetica, Arial-Unicode, Arial, Sans-serif">Created by b farias</text><text x="0" y="120" fill="#000000" font-size="5px" font-weight="bold" font-family="'Helvetica Neue', Helvetica, Arial-Unicode, Arial, Sans-serif">from the Noun Project</text></svg>