<svg xmlns="http://www.w3.org/2000/svg" xmlns:xlink="http://www.w3.org/1999/xlink" version="1.1" x="0px" y="0px" viewBox="0 0 110 137.5" enable-background="new 0 0 110 110" xml:space="preserve"><path d="M78.083,32.844c-3.406-1.704-8.78-3.015-14.679-3.015c-19.003,0-32.109,15.858-32.109,33.552  c0,11.402,6.553,17.955,14.547,17.955c7.078,0,13.499-3.014,18.742-10.878c0.131,7.602,4.719,10.878,10.878,10.878  c12.582,0,25.558-12.057,25.558-35.124c0-24.377-17.169-40.367-41.284-40.367c-30.8,0-50.59,24.378-50.59,54.784  c0,28.047,19.528,45.217,42.202,45.217c9.174,0,17.168-1.312,24.509-5.506l-2.885-9.305c-5.374,2.883-12.45,4.325-20.445,4.325  c-18.611,0-34.207-12.582-34.207-35.518c0-27.785,18.48-43.774,40.104-43.774c20.446,0,33.552,11.664,33.552,30.93  c0,16.776-8.65,24.377-14.679,24.247c-3.932-0.131-5.635-2.49-4.194-10.616L78.083,32.844z M65.895,52.765  c-1.834,10.224-9.174,18.48-17.038,18.48c-5.766,0-8.388-3.671-8.388-9.305c0-12.845,8.781-22.413,20.314-22.413  c3.146,0,5.767,0.393,7.471,1.049L65.895,52.765z"/><text x="0" y="125" fill="#000000" font-size="5px" font-weight="bold" font-family="'Helvetica Neue', Helvetica, Arial-Unicode, Arial, Sans-serif">Created by Trevor Dsouza</text><text x="0" y="130" fill="#000000" font-size="5px" font-weight="bold" font-family="'Helvetica Neue', Helvetica, Arial-Unicode, Arial, Sans-serif">from the Noun Project</text></svg>