<svg xmlns="http://www.w3.org/2000/svg" xmlns:xlink="http://www.w3.org/1999/xlink" version="1.1" x="0px" y="0px" viewBox="0 0 1600 2000" style="enable-background:new 0 0 1600 1600;" xml:space="preserve"><style type="text/css">
	.st0{fill:#020000;}
	.st1{fill:#020000;stroke:#010000;stroke-miterlimit:10;}
	.st2{fill:none;stroke:#000000;stroke-width:40;stroke-miterlimit:10;}
	.st3{fill:none;}
	.st4{stroke:#000000;stroke-width:40;stroke-linecap:round;stroke-linejoin:round;}
</style><g><g><g><path class="st0" d="M1377.2,647.3c113.1,0,204.8,91.7,204.8,204.8c0,113.1-91.7,204.8-204.8,204.8     c-113.1,0-204.8-91.7-204.8-204.8C1172.3,739,1264,647.3,1377.2,647.3z"/><path class="st0" d="M799.5,634.8c113.1,0,204.8,91.7,204.8,204.8s-91.7,204.8-204.8,204.8c-113.1,0-204.8-91.7-204.8-204.8     S686.4,634.8,799.5,634.8z"/><path class="st0" d="M228.8,634.8c113.1,0,204.8,91.7,204.8,204.8s-91.7,204.8-204.8,204.8C115.7,1044.5,24,952.8,24,839.6     S115.7,634.8,228.8,634.8z"/></g><path class="st2" d="M433.7,839.6c0-113.1-91.7-204.8-204.8-204.8C115.7,634.8,24,726.5,24,839.6s91.7,204.8,204.8,204.8    C342,1044.5,433.7,952.8,433.7,839.6z"/><path class="st2" d="M1004.4,839.6c0-113.1-91.7-204.8-204.8-204.8c-113.1,0-204.8,91.7-204.8,204.8s91.7,204.8,204.8,204.8    C912.7,1044.5,1004.4,952.8,1004.4,839.6z"/><path class="st2" d="M1582,852.2c0-113.1-91.7-204.8-204.8-204.8c-113.1,0-204.8,91.7-204.8,204.8c0,113.1,91.7,204.8,204.8,204.8    C1490.3,1057,1582,965.3,1582,852.2z"/></g></g><text x="0" y="1615" fill="#000000" font-size="5px" font-weight="bold" font-family="'Helvetica Neue', Helvetica, Arial-Unicode, Arial, Sans-serif">Created by Vladyslav Severyn</text><text x="0" y="1620" fill="#000000" font-size="5px" font-weight="bold" font-family="'Helvetica Neue', Helvetica, Arial-Unicode, Arial, Sans-serif">from the Noun Project</text></svg>