<svg xmlns="http://www.w3.org/2000/svg" xmlns:xlink="http://www.w3.org/1999/xlink" version="1.1" x="0px" y="0px" viewBox="0 0 100 125" style="enable-background:new 0 0 100 100;" xml:space="preserve"><g><path d="M80.6601563,53.6777267l-3.9589844-2.2529907c-0.000061-2.4869995-0.0007324-4.6193848-0.0095215-6.213501   l3.6794434-3.0647583c0.4658203-0.3867188,0.6835938-0.9755859,0.5830078-1.5751953   c-0.1015625-0.6054688-0.5048828-1.0957031-1.0839844-1.3125l-3.6522217-1.3376465   c-0.4920654-2.1830444-1.3494263-4.225769-2.553833-6.0829468c0.0095215-0.0413818,0.02771-0.0766602,0.0322266-0.1204224   l0.7607422-4.8691406c0-0.0019531,0-0.0029297,0-0.0039063c0.0927734-0.609375-0.1396484-1.2021484-0.6210938-1.5849609   c-0.4785156-0.3808594-1.1044922-0.4785156-1.671875-0.2529297l-3.7485962,1.4550781   c-1.3720093-0.9412842-2.8668213-1.6889648-4.4588013-2.2376709c0.03302-0.3651123-0.0393677-0.7394409-0.2359619-1.0806885   l-2.8623047-4.9638672c-0.3339844-0.5820313-0.9335938-0.9296875-1.6044922-0.9296875   c-0.671875,0-1.2714844,0.3476563-1.6044922,0.9277344l-2.8662109,4.9716797   c-0.0596924,0.1054688-0.0889282,0.2198486-0.1264038,0.3320923c-8.6481934,1.4842529-15.3502197,9.0487061-15.6782837,17.8427124   c-0.2041016,5.40625,1.9287109,10.6435547,5.8525391,14.3701172c0.7792969,0.7402344,1.2783203,1.6992188,1.4082031,2.7041016   l0.0001221,0.1630859c-0.0519409,0.0531616-0.1035156,0.1075439-0.1387939,0.1796875   c-0.0205078,0.0322266-0.0605469,0.0849609-0.1162109,0.1591797c-3.1972656,4.3144531-4.7539063,9.5400391-4.3837891,14.7167969   c0.0703125,0.9941406,0.5615234,1.9179688,1.3476563,2.5341797c0.2553101,0.2005005,0.5390015,0.3522949,0.8338013,0.4744263   l-0.2459106,1.6427612c-0.0605469,0.4101563,0.2216797,0.7919922,0.6308594,0.8535156   c0.0380859,0.0048828,0.0751953,0.0078125,0.1123047,0.0078125c0.3652344,0,0.6855469-0.2666016,0.7412109-0.6386719   l0.2385864-1.5941162c0.1578369-0.0053711,0.315918-0.0132446,0.4723511-0.0396729l0.5199585-0.0889282l0.003479,5.2324829   c0,0.4130859,0.3359375,0.7490234,0.75,0.7490234h28.9902344c0.1992188,0,0.3896484-0.0791016,0.5302734-0.2197266   s0.2197266-0.3320313,0.2197266-0.53125l-0.0305786-23.1098022l3.9671021-2.3433228   c0.5166016-0.3007813,0.8232422-0.8359375,0.8212891-1.4326172C81.5009766,54.5126877,81.1855469,53.9765549,80.6601563,53.6777267   z M79.3486328,40.6650314c0.09375,0.0351563,0.1191406,0.1113281,0.1259766,0.1542969   c0.0087891,0.0488281,0.0039063,0.1181641-0.0625,0.1728516c0,0.0009766-0.0009766,0.0009766-0.0019531,0.0019531   l-2.7207031,2.2705078v-1.2109375c0-0.5582275-0.0334473-1.114563-0.0819092-1.6687012   c-0.0110474-0.1261597-0.0222778-0.2514648-0.0358887-0.3771973c-0.0133057-0.1240845-0.0197754-0.2493896-0.0355225-0.3730469   L79.3486328,40.6650314z M72.7099609,26.4042892c0.0859375-0.0351563,0.1523438-0.0029297,0.1914063,0.0283203   c0.0410156,0.0332031,0.0869141,0.0917969,0.0732422,0.1865234l-0.5527344,3.484375   c-0.0617065-0.0754395-0.1333008-0.1426392-0.196228-0.2171021c-0.3095093-0.3664551-0.6273193-0.7258911-0.9654541-1.0681152   c-0.1405029-0.1422729-0.2936401-0.2728882-0.4389648-0.4108276c-0.2818604-0.2675171-0.5643311-0.5340576-0.8640137-0.7850342   c-0.0400391-0.0335083-0.0750732-0.0716553-0.1154175-0.1048584L72.7099609,26.4042892z M58.9492188,18.9257736   c0.0878906-0.1533203,0.2285156-0.1757813,0.3046875-0.1757813c0.0751953,0,0.2158203,0.0224609,0.3046875,0.1777344   l2.7675781,4.8007813c-0.1463013-0.0357666-0.2943115-0.0617065-0.4412231-0.0939331   c-0.1256104-0.0275269-0.2509155-0.0553589-0.3769531-0.0802612c-0.4666748-0.0922241-0.9352417-0.1726074-1.4070435-0.2289429   c-0.008667-0.0010376-0.017395-0.0013428-0.026062-0.0023804c-0.4627686-0.0546265-0.9280396-0.0863037-1.3943481-0.1063843   c-0.1299438-0.0056152-0.2599487-0.008667-0.3901367-0.0115967c-0.1414795-0.0031738-0.2824707-0.0126343-0.4241943-0.0126343   c-0.3212891,0-0.6435547,0.0078125-0.9658203,0.0244141c-0.1494141,0.0058594-0.2958984,0.0146484-0.4394531,0.0244141   L58.9492188,18.9257736z M45.4794922,75.3788986c-0.5742188,0.0947266-1.1455078-0.046875-1.6054688-0.4082031   c-0.4599609-0.3603516-0.7363281-0.8789063-0.7773438-1.4609375c-0.3056641-4.272583,0.8092651-8.5843506,3.1444092-12.3136597   l0.0093384,14.0509033L45.4794922,75.3788986z M47.7539063,81.2499924l-0.0146484-22.8984375   c0-0.0292969-0.0019531-0.0576172-0.0048828-0.0869141c-0.1621094-1.3691406-0.8271484-2.6679688-1.8710938-3.6582031   c-3.6103516-3.4296875-5.5742188-8.25-5.3867188-13.2255859c0.3095703-8.2636719,6.7275391-15.3632813,14.9443359-16.5175781   c0.4677734-0.0742188,0.9736328-0.1230469,1.5507813-0.1484375c0.4940796-0.0256348,0.9871826-0.0301514,1.4783325-0.0137329   c0.6138916,0.0205078,1.2231445,0.0853882,1.8295288,0.1709595c0.8486938,0.119812,1.6899414,0.2914429,2.5153809,0.5371094   c1.8447266,0.5527344,3.5576172,1.3945313,5.0976563,2.5029297c1.7167969,1.2226563,3.1699219,2.7099609,4.3183594,4.421875   c0.0006104,0.0008545,0.001709,0.0012207,0.0023193,0.0020752c0.0001831,0.0003052,0.0004272,0.0005493,0.0006104,0.0008545   c1.2910156,1.9023438,2.1796875,4.0214844,2.6396484,6.2998047c0.2226563,1.1142578,0.3359375,2.2646484,0.3359375,3.4169922   v2.7666016v0.0048828c0.0117188,1.7265625,0.0117188,4.1777344,0.0117188,7.0800781   c0.0031738,0.494873,0.0055542,1.003418,0.0073242,1.5241089c0.0053711,1.5620728,0.0053711,3.2334595,0.0053711,4.9729614   l0.0302734,22.8476563H47.7539063z M79.9257813,55.2499924c-0.0029297,0.0009766-0.0048828,0.0029297-0.0068359,0.0039063   l-3.2050781,1.9003906c0-0.1052246-0.0001831-0.2047729-0.0001831-0.3093872   c-0.000061-0.1292725-0.0001221-0.2568359-0.0001831-0.3851318c-0.0003662-1.1419678-0.0014648-2.2546387-0.0054932-3.3064575   l3.2099609,1.828125c0.0556641,0.03125,0.0849609,0.0771484,0.0849609,0.1367188   C80.0029297,55.1757736,79.9765625,55.2206955,79.9257813,55.2499924z"/><path d="M72.352417,73.6023483c0.4949341-0.9526978,0.5494385-2.1102295,0.0567627-3.1414185   c-2.4785156-5.1904297-2.2646484-9.9755859-2.2617188-10.0234375c0-0.0029297,0-0.0058594,0-0.0087891   c0.0175781-0.4091797-0.2988281-0.7578125-0.7099609-0.7792969c-0.3837891-0.0302734-0.7597656,0.2900391-0.7871094,0.6982422   c0,0.0009766,0,0.0029297-0.0009766,0.0039063c0,0,0,0,0,0.0009766c0,0.0019531,0,0.0029297,0,0.0068359l-0.0009766,0.0185547   c0,0.0058594-0.0009766,0.0117188-0.0009766,0.0185547c-0.0214844,0.5078125-0.1494141,5.3544922,2.4082031,10.7109375   c0.4453125,0.9335938,0.1152344,2.0507813-0.7685547,2.5986328l-0.6791992,0.4212646   c-0.0004883,0.0003052-0.0009766,0.0003052-0.0014648,0.0006104c-0.0003662,0.0002441-0.0004883,0.0006104-0.0008545,0.0008545   l-1.0235596,0.6348877c-0.4658203,0.2900391-1.015625,0.3671875-1.5458984,0.2128906   c-0.5292969-0.1513672-0.9550781-0.5068359-1.1972656-0.9990234c-2.0400391-4.1455078-2.5058594-8.9853516-1.3115234-13.6279297   c0.0537109-0.2099609,0.078125-0.3427734,0.0810547-0.3876953c0.0283203-0.4140625-0.2792969-0.8046875-0.6923828-0.8330078   c-0.4179688-0.0185547-0.7666016,0.2519531-0.7958984,0.6650391l-0.0458984,0.1816406   c-1.2832031,4.9902344-0.7792969,10.1972656,1.4189453,14.6640625c0.4248047,0.8642578,1.2011719,1.5126953,2.1298828,1.7792969   c0.3095703,0.0888672,0.6279297,0.1328125,0.9443359,0.1328125c0.0994873,0,0.1981201-0.0119019,0.2969971-0.0205078   l0.2723389,1.0644531c0.0869141,0.3388672,0.3916016,0.5644531,0.7255859,0.5644531   c0.0615234,0,0.125-0.0078125,0.1865234-0.0234375c0.4013672-0.1025391,0.6435547-0.5107422,0.5410156-0.9121094   l-0.2932739-1.1462402c0.0249634-0.0146484,0.0518188-0.0249634,0.0764771-0.0402832l0.4232788-0.2625732l0.8550415,1.2928467   c0.1445313,0.2177734,0.3837891,0.3359375,0.6269531,0.3359375c0.1416016,0,0.2851563-0.0400391,0.4130859-0.1240234   c0.3447266-0.2285156,0.4404297-0.6943359,0.2119141-1.0400391l-0.8308105-1.2562866l0.0056152-0.003479   c0.1109619-0.0687866,0.2055664-0.1530762,0.3063354-0.2317505l0.8889771,0.7590942   c0.1416016,0.1210938,0.3144531,0.1796875,0.4873047,0.1796875c0.2119141,0,0.421875-0.0888672,0.5703125-0.2626953   c0.2685547-0.3154297,0.2314453-0.7890625-0.0830078-1.0576172L72.352417,73.6023483z"/><path d="M62.1396484,38.3955002h5.1361694c-0.0379028,0.1973267-0.0631714,0.4050903-0.0631714,0.625   c0,1.083374,0.4990234,1.9616699,1.114563,1.9616699c0.6156006,0,1.114624-0.8782959,1.114624-1.9616699   c0-0.5889893-0.1505127-1.111145-0.3840332-1.4707031c-0.0489502-0.3666992-0.3505249-0.6542969-0.7306519-0.6542969h-6.1875   c-0.4140625,0-0.75,0.3359375-0.75,0.75S61.7255859,38.3955002,62.1396484,38.3955002z"/><path d="M49.1988525,39.0205002c0,1.083374,0.4990234,1.9616699,1.114563,1.9616699   c0.6156006,0,1.114563-0.8782959,1.114563-1.9616699c0-0.5888062-0.1504517-1.1108398-0.3837891-1.4703979   c-0.0488281-0.3669434-0.3504639-0.6546021-0.7307129-0.6546021h-6.1875c-0.4140625,0-0.75,0.3359375-0.75,0.75   s0.3359375,0.75,0.75,0.75h5.1360474C49.2241211,38.5928268,49.1988525,38.8005905,49.1988525,39.0205002z"/><path d="M62.6308594,54.8124924c0.4140625,0,0.75-0.3359375,0.75-0.75s-0.3359375-0.75-0.75-0.75   c-1.8251953,0-3.3105469-1.7763672-3.3105469-3.9589844s1.4853516-3.9580078,3.3105469-3.9580078   c0.4140625,0,0.75-0.3359375,0.75-0.75s-0.3359375-0.75-0.75-0.75c-2.2479248,0-4.135437,1.7611084-4.6604614,4.1296387   c-1.7645874-0.3203125-3.9165039-0.3602905-5.7714233-0.1097412c-0.4321899-1.6099243-1.7472534-2.793335-3.3171387-2.793335   c-0.4140625,0-0.75,0.3359375-0.75,0.75s0.3359375,0.75,0.75,0.75c1.0917969,0,1.9804688,1.0839844,1.9804688,2.4160156   s-0.8886719,2.4160156-1.9804688,2.4160156c-0.4140625,0-0.75,0.3359375-0.75,0.75s0.3359375,0.75,0.75,0.75   c1.8049927,0,3.2763062-1.5601196,3.4467773-3.5415649c1.7642822-0.2476196,3.8485718-0.2041626,5.4995117,0.1154175   C57.9102783,52.4565964,60.0303955,54.8124924,62.6308594,54.8124924z"/><path d="M36.234375,24.1884689c0.3037109,0.0126953,0.5976563,0.0244141,0.8779297,0.0371094   c0.1865234,0.0019531,0.3154297-0.0644531,0.4140625-0.1904297c0.0996094-0.1269531,0.1328125-0.2929688,0.0878906-0.4472656   l-0.6552734-2.2841797c-0.0546875-0.1894531-0.1113281-0.3847656-1.9072266-1.3242188   c-0.1357422-0.0712891-0.2978516-0.0751953-0.4375-0.0126953l-2.7626953,1.2480469   c-0.1943359,0.0878906-0.3115234,0.2900391-0.2919922,0.5029297l0.1064453,1.0800781   c0.0009766,0.0029297,0.0195313,0.0810547,0.0478516,0.2119141c-2.6367188-0.0927734-2.7304688-0.0664063-2.796875-0.046875   c-0.1582031,0.0449219-0.2871094,0.1328125-1.5380859,1.1337891c-0.4208984,0.3359375-0.9785156,0.78125-1.1933594,0.9345703   c-0.0585938-0.0009766-0.1337891-0.0048828-0.2226563-0.0087891c-1.1445313-0.0488281-2.2988281-0.0371094-2.7285156,0.6220703   c-0.046875,0.0703125-0.1162109,0.1953125-0.1982422,0.3564453c-0.90625-0.1308594-1.1416016,0-2.1210938,0.6357422   c-0.2871094,0.1875-0.6542969,0.4257813-1.1474609,0.7265625c-1.0029297,0.6123047-1.0908203,1.2451172-0.9873047,1.6689453   c0.2744141,1.1240234,2.2558594,1.7382813,2.8476563,1.7792969c0.3300781,0.0097656,0.6796875-0.1103516,1.0341797-0.3369141   c0.0820313,0.2041016,0.1699219,0.3984375,0.2636719,0.5673828c0.1425781,0.2578125,0.2880859,0.5810547,0.4316406,0.9248047   c-0.9228516,0.7998047-0.6796875,1.9980469-0.5673828,2.5488281c0.0214844,0.1025391,0.0419922,0.1875,0.0439453,0.2373047   c-0.0126953,0.3193359,0.1699219,0.6816406,0.5205078,1.3476563c0.2363281,0.4472656,0.5039063,0.9550781,0.6181641,1.3515625   c0.0761719,0.2666016,0.2646484,0.4648438,0.5302734,0.5605469c1.0517578,0.3857422,3.5302734-1.1572266,3.6220703-1.2216797   c0.0478516-0.0332031,0.0976563-0.0683594,0.1513672-0.1054688c0.7021484,1.9101563,1.1923828,1.8515625,1.4423828,1.8291016   c0.4326172-0.0488281,0.9169922-0.4462891,1.7197266-1.1035156c0.3505859-0.2861328,0.7529297-0.6162109,1.2099609-0.9628906   l1.8916016,2.8486328c0.0966797,0.1455078,0.2558594,0.2236328,0.4169922,0.2236328   c0.0957031,0,0.1914063-0.0273438,0.2763672-0.0830078c0.2304688-0.1533203,0.2929688-0.4638672,0.140625-0.6933594   l-1.9726563-2.96875c1.1210938-1.1708984,2.1201172-2.9414063,1.9316406-3.6005859   c-0.0019531-0.0068359-0.0039063-0.0136719-0.0068359-0.0224609c0.6591797-0.6259766,0.9501953-1.2509766,1.0673828-1.7597656   c0.5625-0.2490234,0.9335938-0.703125,1.0488281-1.3212891l0.0595703-0.3095703   c0.2050781-1.0615234,0.3544922-1.8291016-0.3369141-3.3222656C36.9345703,24.9433517,36.6005859,24.5244064,36.234375,24.1884689z    M22.1367188,28.7978439c0.0400391,0.1552734,0.1054688,0.4042969,0.1904297,0.6904297   c-0.2617188,0.2099609-0.5078125,0.3564453-0.6289063,0.3251953c-0.515625-0.0351563-1.8417969-0.5898438-1.9462891-1.0185547   c-0.0322266-0.1318359,0.1777344-0.359375,0.5371094-0.578125c0.5029297-0.3066406,0.8779297-0.5507813,1.1708984-0.7412109   c0.5996094-0.390625,0.7949219-0.5175781,1.1083984-0.5175781c0.0068359,0,0.0146484,0,0.0224609,0.0009766   c-0.2978516,0.7011719-0.5615234,1.4599609-0.4833984,1.7294922L22.1367188,28.7978439z M34.8027344,20.9794846   c0.5039063,0.2695313,1.0361328,0.5771484,1.2294922,0.7197266l0.4296875,1.4980469   c-1.53125-0.0644531-2.7480469-0.1132813-3.7158203-0.1494141c-0.0556641-0.2509766-0.09375-0.4101563-0.0947266-0.4101563   l-0.0625-0.6582031L34.8027344,20.9794846z M29.2041016,23.9374924c0.3300781,0.0068359,1.3183594,0.0292969,2.5693359,0.0751953   c-0.5341797,0.1630859-0.7949219,0.21875-0.9150391,0.2275391c-0.3544922-0.1132813-1.0244141-0.0537109-1.9960938,0.1777344   c-0.1347656,0.0322266-0.2753906,0.0673828-0.4189453,0.1083984C28.7548828,24.2792892,29.0576172,24.041008,29.2041016,23.9374924   z M30.4326172,25.1777267c0.0283203,0,0.0556641,0,0.0791016,0.0019531   c0.1923828,0.1064453,0.4960938,0.1113281,1.5859375-0.2197266c0,0.0048828,0.0009766,0.0097656,0.0019531,0.015625   c0.0332031,0.2119141-0.0302734,0.2958984-0.0517578,0.3232422c-0.1064453,0.1425781-0.3505859,0.2011719-0.4228516,0.2109375   c-0.875,0.0917969-2.4130859,0.2412109-3.9404297,0.3642578C28.3632813,25.5058517,29.8808594,25.1777267,30.4326172,25.1777267z    M25.3134766,26.0078049c0.1210938,0,0.2539063,0.0019531,0.4003906,0.0068359   c-0.5009766,0.0292969-0.9609375,0.0507813-1.3486328,0.0605469   C24.5527344,26.0371017,24.8486328,26.0078049,25.3134766,26.0078049z M23.1337891,28.6601486   c-0.0117188-0.0439453-0.0214844-0.0830078-0.0302734-0.1152344l-0.0107422-0.0410156   c0.0517578-0.2275391,0.2861328-0.8623047,0.5351563-1.4326172c0.1591797,0.0058594,0.3427734,0.0068359,0.5419922,0.0039063   c-0.2216797,0.2070313-0.4052734,0.4423828-0.5175781,0.71875C23.5332031,28.0859299,23.3476563,28.384758,23.1337891,28.6601486z    M28.5019531,35.3163986l-0.0888672,0.0175781c-0.1396484,0.0283203-0.2597656,0.1142578-0.3320313,0.2363281   c-0.0097656,0.0175781-0.0195313,0.0351563-0.0273438,0.0527344c-0.2119141,0.1464844-0.4003906,0.2773438-0.5585938,0.3886719   c-0.5146484,0.3369141-2.0351563,1.0732422-2.5546875,1.0732422c-0.0117188,0-0.0234375,0-0.0351563-0.0009766   c-0.1503906-0.4726563-0.4228516-0.9902344-0.6660156-1.4501953c-0.1630859-0.3095703-0.3876953-0.734375-0.4052734-0.8378906   c0.0058594-0.1396484-0.0253906-0.2900391-0.0634766-0.4794922c-0.1005859-0.4912109-0.1630859-0.9404297,0.015625-1.2988281   c0.0927734,0.2236328,0.1816406,0.4306641,0.2646484,0.6044922c0.1123047,0.2333984,0.3447266,0.3984375,0.7119141,0.5048828   c0.6865234,0.2001953,2.0615234,0.21875,3.3076172,0.1171875c0.3544922,0.5908203,0.4912109,0.609375,0.6542969,0.6308594   c0.1767578,0.0244141,0.3574219-0.0488281,0.4677734-0.1787109c0.1240234-0.1464844,0.1484375-0.2998047,0.1455078-0.6103516   c0.5117188-0.0908203,0.9228516-0.2070313,1.1367188-0.3408203c0.2890625-0.1816406,0.7246094-0.5341797,1.1914063-0.9697266   c0.1054688-0.0195313,0.15625-0.0546875,0.2070313-0.0888672c0.0322266-0.0224609,0.1162109-0.1435547,0.2265625-0.3300781   c0.2587891-0.2578125,0.5166016-0.5332031,0.7558594-0.8105469c0.3359375,0.1806641,0.6591797,0.3642578,0.9238281,0.5273438   c-0.1396484,0.0849609-0.2910156,0.1689453-0.4550781,0.2539063   C31.8544922,33.0820236,29.8652344,34.3876877,28.5019531,35.3163986z M30.0947266,31.5869064l1.4482422-0.2470703   c-0.0576172,0.1171875-0.1113281,0.2255859-0.1591797,0.3173828c-0.0419922,0.0410156-0.0830078,0.0820313-0.1240234,0.1220703   C30.9912109,31.7490158,30.5458984,31.6738205,30.0947266,31.5869064z M30.2929688,32.6445236   c-0.1337891,0.1054688-0.2529297,0.1923828-0.3496094,0.2529297c-0.109375,0.0683594-0.3320313,0.1328125-0.625,0.1894531   c0.0009766-0.1914063,0.0068359-0.3945313,0.0214844-0.5976563l0.1171875-0.0107422   C29.7792969,32.5468674,30.0556641,32.6015549,30.2929688,32.6445236z M30.4599609,30.5107346   c0.5966797-0.2744141,1.1904297-0.375,1.65625-0.4355469c-0.0214844,0.0527344-0.0449219,0.1083984-0.0693359,0.1640625   L30.4599609,30.5107346z M29.4658203,29.9140549c-0.34375,0.2167969-0.5869141,0.53125-0.7578125,0.8955078l-1.5039063,0.2558594   c-0.1533203,0.0263672-0.2861328,0.1220703-0.3583984,0.2597656c-0.0605469,0.1152344-0.0732422,0.2490234-0.0380859,0.3720703   l-1.0488281,0.0878906l-0.0273438-0.0195313c0.4677734-0.2548828,0.9716797-0.5322266,1.4599609-0.7998047   c1.0595703-0.5839844,2.2617188-1.2451172,2.4111328-1.3076172l0.1777344-0.0566406   c1.9619141-0.6464844,2.6142578-0.6289063,2.796875-0.5957031c-0.078125,0.0205078-0.1992188,0.0302734-0.3496094,0.0488281   C31.5810547,29.1318283,30.4990234,29.2607346,29.4658203,29.9140549z M28.3310547,32.5732346   c0,0.0029297,0,0.0058594-0.0009766,0.0087891c-0.0009766-0.0029297-0.0029297-0.0058594-0.0039063-0.0087891H28.3310547z    M29.4677734,28.6513596l-0.1416016,0.0458984c-0.1533203,0.0439453-0.5693359,0.265625-2.6171875,1.3916016   c-0.6357422,0.3496094-1.2998047,0.7148438-1.8710938,1.0244141l-0.2265625-0.1650391   c0.8447266-1.0166016,1.7099609-2.0283203,1.9853516-2.3017578c0.3076172-0.0488281,1.2216797-0.1777344,2.4433594-0.3427734   c2.3398438-0.3144531,4.1279297-0.5361328,4.2880859-0.5449219c0.0292969,0.0087891,0.0625,0.0224609,0.1005859,0.0410156   c-0.0234375,0.1689453-0.0498047,0.3408203-0.0800781,0.5117188c-0.0283203-0.0224609-0.0566406-0.0449219-0.0839844-0.0673828   C32.7382813,27.8203049,31.6396484,27.9355392,29.4677734,28.6513596z M24.7578125,32.2929611l0.5615234,0.4101563   c0.0966797,0.0703125,0.2060547,0.1005859,0.3369141,0.09375l1.5976563-0.1337891   c0.1103516,0.2304688,0.2099609,0.4365234,0.3027344,0.6210938c-1.125,0.0664063-2.2871094,0.0361328-2.6328125-0.1552734   c-0.0996094-0.2158203-0.2070313-0.4765625-0.3193359-0.7548828   C24.6533203,32.3476486,24.7050781,32.3212814,24.7578125,32.2929611z M30.8046875,36.6376877   c-0.3935547,0.3222656-0.8291016,0.6796875-1.0683594,0.8222656c-0.1484375-0.2255859-0.3681641-0.7138672-0.5673828-1.2587891   l2.9238281-0.5898438l0.0009766,0.0019531C31.6054688,35.9824142,31.1767578,36.3339767,30.8046875,36.6376877z    M32.8359375,34.9228439l-0.0957031-0.1445313c-0.0947266-0.1416016-0.2519531-0.2236328-0.4169922-0.2236328   c-0.0332031,0-0.0664063,0.0029297-0.0986328,0.0097656l-1.1142578,0.2246094   c0.9189453-0.5869141,1.8759766-1.1650391,2.6708984-1.5732422c0.1162109-0.0595703,0.2285156-0.1201172,0.3349609-0.1816406   C33.8535156,33.5644455,33.3964844,34.2997971,32.8359375,34.9228439z M34.6318359,31.4345627   c-0.2646484-0.1855469-0.6328125-0.4121094-1.1455078-0.6894531c0.1650391-0.2373047,0.3027344-0.4658203,0.3994141-0.6748047   c0.0117188-0.0244141,0.0224609-0.0478516,0.0332031-0.0732422c0.4707031,0.3300781,0.9208984,0.6005859,1.1367188,0.609375   c0.0673828,0.0029297,0.1259766,0.0029297,0.2050781,0.0048828C35.1347656,30.8652267,34.9375,31.1455002,34.6318359,31.4345627z    M35.1552734,29.6093674c-0.1494141-0.0771484-0.5146484-0.3261719-0.9228516-0.6240234   c0.0410156-0.1806641,0.0771484-0.3642578,0.109375-0.546875c0.5058594,0.4140625,1.0117188,0.9091797,1.1054688,1.1650391   C35.3505859,29.6103439,35.2529297,29.6122971,35.1552734,29.6093674z M36.5195313,28.572258l-0.0595703,0.3154297   c-0.0224609,0.1181641-0.0634766,0.2177734-0.1191406,0.3017578c-0.2978516-0.6044922-1.1201172-1.3818359-1.84375-1.890625   c0.046875-0.4619141,0.0625-0.7832031,0.0605469-0.7919922l0.1074219-0.5332031   c0.0546875-0.2705078-0.1210938-0.5341797-0.3916016-0.5888672c-0.265625-0.0556641-0.5341797,0.1201172-0.5888672,0.3916016   l-0.1162109,0.6074219c-0.0058594,0.1044922-0.0146484,0.2412109-0.0273438,0.4013672   c-0.0429688-0.0107422-0.0820313-0.0166016-0.1162109-0.0185547c-0.0058594,0-0.0126953,0-0.0195313,0   c-0.3867188,0-2.9726563,0.3408203-4.4980469,0.546875c-0.9335938,0.125-2.5205078,0.3417969-2.6640625,0.3828125   c-0.1630859,0.046875-0.3173828,0.0917969-2.5058594,2.7392578c-0.09375-0.1884766-0.1816406-0.4130859-0.2626953-0.6435547   c0.4863281-0.5048828,0.8974609-1.1132813,1.1035156-1.6210938c0.1728516-0.4238281,0.8369141-0.7792969,1.4238281-1.0917969   c0.0566406-0.0302734,0.1123047-0.0605469,0.1679688-0.0908203c2.3125-0.1474609,5.0917969-0.4355469,5.5585938-0.484375   c0.0732422-0.0078125,0.7226563-0.0888672,1.1103516-0.5927734c0.1591797-0.2060547,0.3310547-0.5625,0.2490234-1.0898438   c-0.0087891-0.0576172-0.0185547-0.1142578-0.0283203-0.171875c0.3105469-0.1044922,0.6601563-0.2255859,1.0546875-0.3652344   c0.0898438-0.03125,0.1640625-0.0576172,0.2148438-0.0751953c0.2822266,0.0712891,1.4033203,0.5185547,1.9277344,1.6503906   C36.8125,27.0595627,36.7148438,27.5654221,36.5195313,28.572258z"/></g><text x="0" y="115" fill="#000000" font-size="5px" font-weight="bold" font-family="'Helvetica Neue', Helvetica, Arial-Unicode, Arial, Sans-serif">Created by Mat fine</text><text x="0" y="120" fill="#000000" font-size="5px" font-weight="bold" font-family="'Helvetica Neue', Helvetica, Arial-Unicode, Arial, Sans-serif">from the Noun Project</text></svg>