<svg xmlns="http://www.w3.org/2000/svg" xmlns:xlink="http://www.w3.org/1999/xlink" version="1.1" x="0px" y="0px" viewBox="0 0 66 82.5" enable-background="new 0 0 66 66" xml:space="preserve"><g><path d="M63.392,26.069c-2.531-3.098-5.265-6.129-8.127-9.016l0.007-6.652c0-3.279-0.959-4.586-4.522-4.66   c-2.748-0.067-5.599-0.094-8.463-0.079c-0.707-0.534-1.414-1.07-2.134-1.59c-5.753-4.188-8.567-3.871-13.667-0.42   c-1.38,0.93-2.656,1.832-3.901,2.755c-3.076,0.211-6.209,0.481-9.57,0.826C9.026,7.628,8.414,9.223,8.821,12.05   c0.189,1.31,0.148,0.878,0.125,5.869c-2.341,2.272-4.641,4.677-6.835,7.158c-0.082,0.093-0.127,0.213-0.125,0.337   c0.118,10.472-0.497,20.773-0.378,31.27c0.07,5.439,1.54,7.649,8.22,7.875c16.035,0.498,32.634,0.589,49.368,0.213   c3.983-0.095,5.299-1.407,5.208-5.476C64.397,59.024,63.565,26.279,63.392,26.069z M55.355,31.518l2.627-2.627   c0.098-0.098,0.098-0.256,0-0.354c-0.098-0.098-0.256-0.098-0.354,0l-2.378,2.378l0.003-2.862c0.021-0.011,0.046-0.009,0.064-0.027   l0.136-0.136l1.144,1.144c0.098,0.098,0.256,0.098,0.354,0c0.098-0.098,0.098-0.256,0-0.354l-1.143-1.144l1.616-1.616   c0.098-0.098,0.098-0.256,0-0.354c-0.098-0.098-0.256-0.098-0.354,0l-0.478,0.478l-1.098-1.098l1.24-1.24l0.174,0.174   c0.098,0.098,0.256,0.098,0.354,0c0.098-0.098,0.098-0.256,0-0.354l-0.174-0.174l0.434-0.434c0.098-0.098,0.098-0.256,0-0.353   c-0.098-0.098-0.256-0.098-0.354,0L56.734,23l-0.956-0.956l0.845-0.845c0.089-0.089,0.087-0.226,0.012-0.323l0.528,0.528   c0.098,0.098,0.256,0.098,0.354,0c0.098-0.098,0.098-0.256,0-0.353l-1.283-1.283l0.124-0.124c2.062,2.167,4.062,4.39,5.936,6.665   C60.128,28.063,57.282,30.05,55.355,31.518z M55.419,20.228c0.098,0.098,0.256,0.098,0.353,0l0.108-0.108l0.713,0.713   c-0.098-0.074-0.234-0.077-0.323,0.012l-0.845,0.845l-0.164-0.165l0.002-2.023l0.264,0.264l-0.108,0.108   C55.322,19.972,55.322,20.131,55.419,20.228z M55.255,26.983l0.002-1.568l0.983,0.983l-0.785,0.785L55.255,26.983z M55.259,22.529   c0.019-0.011,0.042-0.008,0.058-0.024l0.107-0.108l0.956,0.956l-1.123,1.124L55.259,22.529z M56.016,19.278l-0.135,0.135   l-0.617-0.617l0-0.322C55.52,18.737,55.762,19.013,56.016,19.278z M27.046,4.481c5.525-3.741,7.743-3.176,13.595,1.191   C34.782,5.732,29.209,5.97,24.456,6.279C25.288,5.683,26.145,5.089,27.046,4.481z M13.116,8.227   c12.713-1.302,25.37-1.786,37.612-1.486c2.893,0.06,3.544,0.811,3.544,3.66c-0.003,2.972-0.022,20.42-0.023,21.976   C33.734,48.775,29.258,46.693,9.888,30.79c0.087-19.306,0.134-17.415-0.077-18.883C9.497,9.73,9.611,8.576,13.116,8.227z    M8.469,28.582c0.098,0.098,0.256,0.098,0.353,0s0.098-0.256,0-0.354L8.59,27.996l0.312-0.312l-0.01,2.291   c-0.419-0.34-0.837-0.684-1.256-1.025l0.601-0.601L8.469,28.582z M8.923,22.462l-0.071-0.071l0.072-0.072L8.923,22.462z    M8.696,22.942c0.049,0.049,0.113,0.073,0.177,0.073c0.017,0,0.031-0.016,0.048-0.02l-0.004,0.987l-0.828-0.828l0.41-0.409   L8.696,22.942z M8.927,21.609l-0.429,0.428L7.841,21.38c-0.098-0.098-0.256-0.098-0.354,0c-0.098,0.098-0.098,0.256,0,0.354   l0.658,0.658l-0.42,0.419c-0.061,0.061-0.07,0.143-0.055,0.221c-0.013,0.009-0.029,0.006-0.041,0.017   c-0.098,0.098-0.098,0.256,0,0.354l1.016,1.016l-0.72,0.72l-0.467-0.467c-0.098-0.098-0.256-0.098-0.353,0   c-0.098,0.098-0.098,0.256,0,0.354l0.471,0.471c-0.087,0.098-0.088,0.246,0.006,0.339c0.086,0.086,0.224,0.107,0.34,0.006   l0.439,0.439c0.098,0.098,0.256,0.098,0.354,0c0.098-0.098,0.098-0.256,0-0.354L8.28,25.491l0.634-0.633l-0.009,2.116l-0.668,0.668   l-0.92-0.921c-0.098-0.098-0.256-0.098-0.354,0c-0.098,0.098-0.098,0.256,0,0.354l0.92,0.921l-0.637,0.637   c-1.344-1.095-2.689-2.189-4.029-3.287c1.849-2.074,3.765-4.097,5.72-6.024L8.927,21.609z M43.188,62.077   c0.003,0.06,0.023,0.12,0.069,0.166l1.04,1.04l-0.536,0.536c-0.042,0.042-0.058,0.098-0.063,0.153   c-0.335,0.002-0.67,0.001-1.004,0.002c-0.011-0.039-0.016-0.081-0.047-0.112l-0.621-0.621L43.188,62.077z M44.893,63.88   c0.098,0.098,0.256,0.098,0.354,0c0.098-0.098,0.098-0.256,0-0.354l-0.243-0.243L46.287,62l1.367,1.367l-0.595,0.595   c-0.913,0.008-1.829,0.003-2.743,0.009l0.334-0.334L44.893,63.88z M48.268,63.628c0.062-0.062,0.07-0.143,0.054-0.223l1.111-1.111   l1.534,1.535l-0.073,0.073c-1.04,0.014-2.076,0.039-3.118,0.049l0.268-0.268C48.129,63.699,48.182,63.713,48.268,63.628z    M51.412,60.315c0.003,0.06,0.023,0.119,0.068,0.165l1.418,1.418l-1.577,1.577l-1.534-1.535L51.412,60.315z M54.888,63.181   l-1.283-1.283l1.618-1.618l1.283,1.283L54.888,63.181z M54.534,63.534l-0.285,0.285c-0.008,0.008-0.005,0.021-0.012,0.03   c-0.874,0.015-1.749,0.029-2.624,0.041l1.638-1.638L54.534,63.534z M42.052,63.976c-0.255,0.001-0.51,0.001-0.765,0.002   l0.383-0.383L42.052,63.976z M59.173,63.771c-1.407,0.032-2.824,0.041-4.235,0.066l0.12-0.12c0.003-0.002,0.007-0.001,0.009-0.004   c0.003-0.002,0.001-0.007,0.004-0.009l1.789-1.789l1.442,1.442c0.007,0.052,0.02,0.104,0.06,0.144   c0.04,0.04,0.092,0.052,0.144,0.06l0.031,0.031c0.098,0.098,0.256,0.098,0.354,0c0.081-0.08,0.078-0.197,0.026-0.292l1.637-1.637   l1.546,1.546C61.308,63.67,60.231,63.746,59.173,63.771z M60.459,59.725c0.098,0.098,0.256,0.098,0.353,0l0.83-0.83l0.486,0.486   l-1.577,1.577l-1.367-1.367l1.577-1.577l0.528,0.528l-0.83,0.83C60.362,59.47,60.362,59.628,60.459,59.725z M60.199,61.311   l-1.618,1.618l-1.367-1.367l1.618-1.618L60.199,61.311z M62.495,62.923c-0.008-0.012-0.005-0.028-0.016-0.039l-1.574-1.574   l1.577-1.577l0.076,0.076c0.098,0.098,0.256,0.098,0.354,0c0.098-0.098,0.098-0.256,0-0.354l-0.076-0.076l0.327-0.327   c0.098-0.098,0.098-0.256,0-0.354c-0.098-0.098-0.256-0.098-0.354,0l-0.327,0.327l-0.486-0.486l1.059-1.059   c0.098-0.098,0.098-0.256,0-0.354c-0.098-0.098-0.256-0.098-0.354,0l-1.059,1.059l-0.528-0.528l0.426-0.426   c0.098-0.098,0.098-0.256,0-0.354c-0.098-0.098-0.256-0.098-0.354,0l-0.426,0.426l-0.536-0.536c-0.098-0.098-0.256-0.098-0.354,0   c-0.098,0.098-0.098,0.256,0,0.353l0.536,0.536l-1.577,1.577l-1.292-1.292c-0.098-0.098-0.256-0.098-0.353,0   c-0.098,0.098-0.098,0.256,0,0.354l1.292,1.292l-1.618,1.618l-1.283-1.283l1.489-1.488c0.098-0.098,0.098-0.256,0-0.354   c-0.098-0.098-0.256-0.098-0.354,0l-1.488,1.488l-0.62-0.62c-0.098-0.098-0.256-0.098-0.354,0c-0.098,0.098-0.098,0.256,0,0.354   l0.62,0.62l-1.618,1.618l-1.418-1.418c-0.046-0.046-0.105-0.065-0.165-0.068l0.296-0.296c0.098-0.098,0.098-0.256,0-0.354   c-0.098-0.098-0.256-0.098-0.354,0l-2.178,2.178L49.4,61.554c-0.098-0.098-0.256-0.098-0.354,0c-0.098,0.098-0.098,0.256,0,0.354   l0.033,0.033l-1.073,1.073l-1.367-1.367l0.881-0.881c0.098-0.098,0.098-0.256,0-0.354c-0.098-0.098-0.256-0.098-0.354,0   l-2.518,2.517l-1.04-1.04c-0.046-0.046-0.106-0.066-0.166-0.069l0.55-0.55c0.098-0.098,0.098-0.256,0-0.354   c-0.098-0.098-0.256-0.098-0.354,0l-1.97,1.97l-0.83-0.83c-0.098-0.098-0.256-0.098-0.354,0c-0.098,0.098-0.098,0.256,0,0.354   l0.83,0.83l-0.662,0.662c-0.021,0.021-0.02,0.051-0.032,0.076c-10.269,0.023-20.559-0.103-30.763-0.421   c-6.167-0.208-7.191-2.042-7.252-6.888C2.494,46.565,3.06,36.797,2.99,26.45c2.023,1.659,4.051,3.317,6.08,4.962l0,0   c22.596,18.545,25.326,18.334,53.459-3.996c0.136,5.833,0.304,11.4,0.542,19.528l-1.334-1.334c-0.098-0.098-0.256-0.098-0.354,0   c-0.098,0.098-0.098,0.256,0,0.354l1.376,1.375l-1.04,1.04c-0.098,0.098-0.098,0.256,0,0.354c0.098,0.098,0.256,0.098,0.354,0   l1.021-1.02c0.018,0.616,0.036,1.233,0.054,1.848c-0.004,0.004-0.01,0.002-0.014,0.006l-0.482,0.482l-0.914-0.914   c-0.098-0.098-0.256-0.098-0.354,0c-0.098,0.098-0.098,0.256,0,0.354l0.914,0.914l-0.662,0.662c-0.098,0.098-0.098,0.256,0,0.354   c0.098,0.098,0.256,0.098,0.354,0l0.662-0.662l0.002,0.002c0.098,0.098,0.256,0.098,0.354,0c0.098-0.098,0.098-0.256,0-0.354   l-0.002-0.002l0.162-0.162c0.086,3.038,0.168,6.07,0.238,9.08C63.432,60.584,63.426,62.083,62.495,62.923z"/><path d="M27.686,33.854c3.056,1.557,7.09,1.268,10.272-0.76c0.233-0.148,0.301-0.458,0.153-0.69   c-0.15-0.233-0.459-0.301-0.69-0.153c-2.881,1.837-6.524,2.114-9.281,0.713c-2.946-1.5-4.644-5.004-3.867-7.978   C25.836,19,35.386,16.32,38.812,22.213c1.084,1.862,1.024,4.322-0.146,5.982c-0.309,0.438-0.821,1-1.514,1.195   c-0.593,0.17-1.239-0.012-1.543-0.424c-0.274-0.371-0.312-0.913-0.33-1.532c-0.152-5.054,0.098-6.017-0.681-5.998   c-0.507,0.016-0.487,0.427-0.474,0.878c-3.39-1.513-7.01,1.695-6.191,5.76c0.684,3.391,4.145,3.877,6.484,0.601   c0.075,0.307,0.185,0.612,0.386,0.885c0.552,0.749,1.632,1.075,2.62,0.793c0.771-0.218,1.483-0.765,2.06-1.582   c1.41-2,1.487-4.838,0.193-7.062c-3.862-6.643-14.572-3.86-16.372,3.024C22.413,28.143,24.338,32.15,27.686,33.854z M28.913,27.877   c-0.734-3.638,2.793-6.108,5.245-4.403l0.108,3.61C31.759,31.165,29.394,30.259,28.913,27.877z"/><path d="M62.579,53.622c0.098,0.098,0.256,0.098,0.354,0c0.098-0.098,0.098-0.256,0-0.354l-0.176-0.176   c0.018-0.081,0.011-0.165-0.052-0.227c-0.063-0.063-0.147-0.07-0.227-0.052l-0.993-0.994c-0.098-0.098-0.256-0.098-0.354,0   c-0.098,0.098-0.098,0.256,0,0.354l0.956,0.957l-1.031,1.031l-0.075-0.075c-0.098-0.098-0.256-0.098-0.353,0   c-0.098,0.098-0.098,0.256,0,0.354l0.075,0.075l-0.495,0.495c-0.098,0.098-0.098,0.256,0,0.354c0.098,0.098,0.256,0.098,0.353,0   l0.495-0.495l1.464,1.465c0.098,0.098,0.256,0.098,0.354,0c0.098-0.098,0.098-0.256,0-0.354l-1.465-1.465l1.031-1.031   L62.579,53.622z"/><path d="M17.909,46.286L19.196,45c0.098-0.098,0.098-0.256,0-0.354c-0.098-0.098-0.256-0.098-0.354,0l-1.287,1.286l-1.787-1.787   l0.635-0.635c0.098-0.098,0.098-0.256,0-0.354c-0.098-0.098-0.256-0.098-0.354,0l-0.635,0.635l-1.411-1.411l0.468-0.468   c0.098-0.098,0.098-0.256,0-0.354c-0.098-0.098-0.256-0.098-0.353,0l-0.468,0.468l-1.224-1.224l0.676-0.675   c0.098-0.098,0.098-0.256,0-0.354c-0.098-0.098-0.256-0.098-0.354,0l-0.676,0.675l-1.486-1.486l0.762-0.762   c0.098-0.098,0.098-0.256,0-0.354c-0.098-0.098-0.256-0.098-0.354,0l-0.762,0.762l-1.036-1.036l0.988-0.988   c0.098-0.098,0.098-0.256,0-0.354c-0.098-0.098-0.256-0.098-0.354,0L8.844,37.22l-0.95-0.95c-0.098-0.098-0.256-0.098-0.353,0   c-0.098,0.098-0.098,0.256,0,0.353l0.95,0.95l-0.649,0.65c-0.098,0.098-0.098,0.256,0,0.354c0.098,0.098,0.256,0.098,0.354,0   l0.649-0.65l1.036,1.036l-0.912,0.912c-0.098,0.098-0.098,0.256,0,0.354c0.098,0.098,0.256,0.098,0.354,0l0.912-0.912l1.486,1.486   l-0.875,0.874c-0.098,0.098-0.098,0.256,0,0.353c0.098,0.098,0.256,0.098,0.354,0l0.875-0.874l1.224,1.224l-1.175,1.175   c-0.098,0.098-0.098,0.256,0,0.354c0.098,0.098,0.256,0.098,0.354,0l1.175-1.175l1.411,1.411l-0.987,0.987   c-0.098,0.098-0.098,0.256,0,0.354c0.098,0.098,0.256,0.098,0.354,0l0.987-0.987l1.787,1.787l-1.175,1.174   c-0.098,0.098-0.098,0.256,0,0.354c0.098,0.098,0.256,0.098,0.354,0l1.175-1.174l1.364,1.364c0.098,0.098,0.256,0.098,0.354,0   c0.098-0.098,0.098-0.256,0-0.354L17.909,46.286z"/><path d="M13.309,16.897l1.12-1.12l0.476,0.476c0.003,0.059,0.023,0.118,0.068,0.164c0.045,0.045,0.104,0.064,0.164,0.068   l1.773,1.773l-0.688,0.688c-0.098,0.098-0.098,0.256,0,0.353c0.098,0.098,0.256,0.098,0.354,0l0.688-0.688l0.419,0.419   c0.098,0.098,0.256,0.098,0.354,0c0.098-0.098,0.098-0.256,0-0.354l-0.419-0.419l1.115-1.115c0.09,0.034,0.156,0.063,0.259-0.039   c0.072-0.072,0.072-0.17,0.039-0.259l1.356-1.356l0.019,0.019c0.098,0.098,0.256,0.098,0.354,0c0.098-0.098,0.098-0.256,0-0.353   l-0.019-0.019l0.929-0.929c0.098-0.098,0.098-0.256,0-0.353c-0.098-0.098-0.256-0.098-0.354,0l-0.928,0.929l-0.765-0.765   c0.063-0.097,0.066-0.222-0.019-0.307c-0.085-0.085-0.211-0.082-0.307-0.019l-0.621-0.621l0.497-0.497   c0.098-0.098,0.098-0.256,0-0.354c-0.098-0.098-0.256-0.098-0.354,0l-0.497,0.497l-0.304-0.304c-0.098-0.098-0.256-0.098-0.354,0   c-0.098,0.098-0.098,0.256,0,0.354l0.304,0.304l-1.327,1.327l-0.415-0.415l0.641-0.641c0.098-0.098,0.098-0.256,0-0.354   c-0.098-0.098-0.256-0.098-0.354,0L15.81,13.69c-0.059,0.003-0.119,0.023-0.164,0.068c-0.045,0.045-0.065,0.105-0.068,0.165   l-1.148,1.148l-0.159-0.159c-0.098-0.098-0.256-0.098-0.354,0c-0.098,0.098-0.098,0.256,0,0.353l0.159,0.159l-1.12,1.12   c-0.098,0.098-0.098,0.256,0,0.354C13.053,16.995,13.212,16.995,13.309,16.897z M15.551,16.192l1.087-1.088l0.607,0.607   l-0.447,0.447c-0.098,0.098-0.098,0.256,0,0.354c0.098,0.098,0.256,0.098,0.354,0l0.447-0.447l0.751,0.751l-1.087,1.087   L15.551,16.192z M18.704,16.463l-0.751-0.751l1.328-1.328l0.751,0.751L18.704,16.463z M18.32,13.424l0.607,0.607l-1.328,1.328   l-0.607-0.607L18.32,13.424z M15.87,14.336l0.415,0.415l-1.087,1.088l-0.415-0.415L15.87,14.336z"/></g><text x="0" y="81" fill="#000000" font-size="5px" font-weight="bold" font-family="'Helvetica Neue', Helvetica, Arial-Unicode, Arial, Sans-serif">Created by Creative Stall</text><text x="0" y="86" fill="#000000" font-size="5px" font-weight="bold" font-family="'Helvetica Neue', Helvetica, Arial-Unicode, Arial, Sans-serif">from the Noun Project</text></svg>