<svg xmlns="http://www.w3.org/2000/svg" xmlns:xlink="http://www.w3.org/1999/xlink" xml:space="preserve" version="1.1" style="shape-rendering:geometricPrecision;text-rendering:geometricPrecision;image-rendering:optimizeQuality;" viewBox="0 0 333 416.25" x="0px" y="0px" fill-rule="evenodd" clip-rule="evenodd"><defs><style type="text/css">
   
    .fil0 {fill:black}
   
  </style></defs><g><path class="fil0" d="M106 5l121 0c18,0 32,14 32,32l0 260c0,17 -14,32 -32,32l-121 0c-17,0 -32,-15 -32,-32l0 -260c0,-18 15,-32 32,-32zm24 21l73 0c3,0 5,2 5,4l0 0c0,3 -2,5 -5,5l-73 0c-2,0 -4,-2 -4,-5l0 0c0,-2 2,-4 4,-4zm-30 26l133 0 0 214 -133 0 0 -214zm67 231c8,0 15,7 15,15 0,9 -7,16 -15,16 -9,0 -16,-7 -16,-16 0,-8 7,-15 16,-15z"/></g><text x="0" y="348" fill="#000000" font-size="5px" font-weight="bold" font-family="'Helvetica Neue', Helvetica, Arial-Unicode, Arial, Sans-serif">Created by Mas Bro Mellow</text><text x="0" y="353" fill="#000000" font-size="5px" font-weight="bold" font-family="'Helvetica Neue', Helvetica, Arial-Unicode, Arial, Sans-serif">from the Noun Project</text></svg>