<svg xmlns="http://www.w3.org/2000/svg" xmlns:xlink="http://www.w3.org/1999/xlink" xml:space="preserve" version="1.1" style="shape-rendering:geometricPrecision;text-rendering:geometricPrecision;image-rendering:optimizeQuality;" viewBox="0 0 0.309 0.10874999999999999" x="0px" y="0px" fill-rule="evenodd" clip-rule="evenodd"><defs><style type="text/css">
   
    .fil0 {fill:none}
    .fil1 {fill:black}
   
  </style></defs><g><g><rect class="fil0" width="0.309" height="0.087"/><path class="fil1" d="M0.02 0l0.047 0c0.006,0 0.011,0.002 0.014,0.006 0.004,0.003 0.006,0.008 0.006,0.014l0 0.047c0,0.006 -0.002,0.011 -0.006,0.014 -0.003,0.004 -0.008,0.006 -0.014,0.006l-0.047 0c-0.006,0 -0.011,-0.002 -0.014,-0.006 -0.004,-0.003 -0.006,-0.008 -0.006,-0.014l0 -0.047c0,-0.006 0.002,-0.011 0.006,-0.014 0.003,-0.004 0.008,-0.006 0.014,-0.006zm0.222 0l0.047 0c0.006,0 0.011,0.002 0.014,0.006 0.004,0.003 0.006,0.008 0.006,0.014l0 0.047c0,0.006 -0.002,0.011 -0.006,0.014 -0.003,0.004 -0.008,0.006 -0.014,0.006l-0.047 0c-0.006,0 -0.011,-0.002 -0.014,-0.006 -0.004,-0.003 -0.006,-0.008 -0.006,-0.014l0 -0.047c0,-0.006 0.002,-0.011 0.006,-0.014 0.003,-0.004 0.008,-0.006 0.014,-0.006zm0.047 0.008l-0.047 0c-0.004,0 -0.007,0.001 -0.009,0.003 -0.002,0.003 -0.003,0.006 -0.003,0.009l0 0.047c0,0.004 0.001,0.007 0.003,0.009 0.002,0.002 0.005,0.003 0.009,0.003l0.047 0c0.003,0 0.006,-0.001 0.009,-0.003 0.002,-0.002 0.003,-0.005 0.003,-0.009l0 -0.047c0,-0.003 -0.001,-0.006 -0.003,-0.009 -0.003,-0.002 -0.006,-0.003 -0.009,-0.003zm-0.158 -0.008l0.047 0c0.006,0 0.011,0.002 0.014,0.006 0.004,0.003 0.006,0.008 0.006,0.014l0 0.047c0,0.006 -0.002,0.011 -0.006,0.014 -0.003,0.004 -0.008,0.006 -0.014,0.006l-0.047 0c-0.006,0 -0.011,-0.002 -0.014,-0.006 -0.004,-0.003 -0.006,-0.008 -0.006,-0.014l0 -0.047c0,-0.006 0.002,-0.011 0.006,-0.014 0.003,-0.004 0.008,-0.006 0.014,-0.006z"/></g></g><text x="0" y="15.087" fill="#000000" font-size="5px" font-weight="bold" font-family="'Helvetica Neue', Helvetica, Arial-Unicode, Arial, Sans-serif">Created by Deemak Daksina</text><text x="0" y="20.087" fill="#000000" font-size="5px" font-weight="bold" font-family="'Helvetica Neue', Helvetica, Arial-Unicode, Arial, Sans-serif">from the Noun Project</text></svg>